<svg xmlns="http://www.w3.org/2000/svg" viewBox="0 0 246.2 52"><title>Augustiner_logo_text</title><g id="Layer_2" data-name="Layer 2"><g id="Layer_1-2" data-name="Layer 1"><path d="M20.4,24.9a.7.7,0,0,1,0-.5c.5-.4.9.5,1.4.6s-.9.6-1.4,0m-7.6-5.7a10.3,10.3,0,0,0-3.3.4c-.8.1-1.3-.2-.9-1.2a34.4,34.4,0,0,0,1.2-5.1c.2-.8.5-.6.7-.2a54.9,54.9,0,0,0,2.9,5.1c.6.9-.2.8-.7,1m-1-10.4c.6-.3.9.5,1.5.5s-1,.7-1.5,0-.1-.5,0-.6M27.7,25.6c-.1-.2-.1-.8-.4-.6s.2.2.2.6-.2.4-.4.4a4.3,4.3,0,0,1-2.4-.4c-1.5-.7-2.2-2.3-3-3.8s-3.4-6.2-5.1-9.3c-.5-.9-.2-2,.7-2s1-1,.9-2S17.6,7,16.7,7s-2.3,1.2-3.6.8a5.2,5.2,0,0,0-4.2.7.8.8,0,0,1-1.1,0,2.4,2.4,0,0,0-2-.3A1.5,1.5,0,0,0,4.7,10c.1,1,.6,1.3,1.2,1.4a1.6,1.6,0,0,1,1.3,2.2,17,17,0,0,1-1.4,4.6c.3,1.4-.7,2.2-.8,3.4s-1.1,3.3-1.4,5a2.1,2.1,0,0,1-2.5,1.8c-.6-.1-1.3-.1-1,1.2s0,1.9,1.2,1.7,1.6-.9,2.5-.8,3.7-.5,5.6.1,1-.4,1-1.3a4.6,4.6,0,0,1,0-1.7l-1.4.2c-1.4.2-2.1-.7-1.8-2.5s0-1.9.9-2c2.4-.1,4.7-.8,7.1-.7a1.2,1.2,0,0,1,1.3.8c1,2.4.7,3.2-1.4,3.5s-.9.5-.9,1.2.1,1.4,1,1.5a4.3,4.3,0,0,0,1.3.1c1.4-.3,2.7-1.3,4.3-1s1.6.5,2.4,0a2.4,2.4,0,0,1,2.2-.1,8.8,8.8,0,0,0,2.4-.1c.3,0,.6-.3.5-.6s-.1-1.6-.4-2.4" fill="#fff"/><path d="M31.1,14h0m17-10.7c-1.5.5-3.1.1-4.5.7a1.3,1.3,0,0,1-1.2,0,2.8,2.8,0,0,0-1.9.1c-1,.2-.4,1.2-.4,2s.2,1.3.7,1.1,3,.9,3.2,3.5.4,4.1.4,6.1a7.2,7.2,0,0,1-1.7,5.2c-2.4,2.5-7.2,2.1-8.3-3.6-.4-2.1-.6-4.3-.9-6.4s.3-3.7,2.2-4.3a1.4,1.4,0,0,0,1-1.4c-.3-.8-.4-2.3-1.5-1.8s-4.8-.1-7,1.4c-.3.2-.7,0-1.1-.2a3.7,3.7,0,0,0-3,.2c-1.2.5-.5,2-.6,2.9s.9.1,1.3,0c1.9-.1,2.7.5,3,2.9l.5,4.2c.2,1.4.3,2.9.5,4.3s2.4,6,4,6.4c3.8.9,7.5,1.1,11-1.1s3.3-3.7,3.5-6.9a43.7,43.7,0,0,0-.6-7.8c-.3-2.4.5-4.5,2.6-4.8a.6.6,0,0,0,.6-.6c.1-1.4-.8-2.5-1.9-2.2" fill="#fff"/><path d="M68.9,17.1c-.3.1-.4,0-.3-.4s0-.4.2-.4v.3h.3c.1.3,0,.5-.2.4m5.2-4.9c-1.1.3-2.2.9-3.4.7a3.3,3.3,0,0,0-2.1,0c-1.4.9-2.7.2-4.1-.1s-.7-.2-.7.2a12.2,12.2,0,0,0,0,2.5c0,.2.5.2.8.2A2.3,2.3,0,0,1,67,18.5a4,4,0,0,1-1,2.3c-1.1,1.3-2.6,1.1-3.9,1.2s-3.9-1.7-4.7-4.3a18.9,18.9,0,0,1-.6-4.5c-.3-6.3,3.5-9,7.6-7.5,1.2.4,1.8,2,1.5,3.8a21.3,21.3,0,0,1,5.4-.1c.3,0,.9,0,.7-.7a16.1,16.1,0,0,1-.3-5.4c.1-2,0-2-1.4-1.3a1.4,1.4,0,0,1-1,.1,7.2,7.2,0,0,0-3.7.3,1.5,1.5,0,0,1-1,0c-2.2-1-4.4-.6-6.5.2s-4.4,1.9-5.6,4.3A13.3,13.3,0,0,0,52.1,19a10.2,10.2,0,0,0,6.5,5.8,13.7,13.7,0,0,0,6.2-.2,11.7,11.7,0,0,0,4-1.3c1.1-.7,1.9-1.9,3.2-2s.8-.2.5-1.2c-.8-2.7.1-4.6,2.1-5.1s1.1-.9,1.1-1.8-1-1.1-1.7-1" fill="#fff"/><path d="M82.6,9.7h0M100.2.1c-1.5.4-3.1-.1-4.5.4A1.3,1.3,0,0,1,94.5.4,2.8,2.8,0,0,0,92.6.3c-1,.1-.5,1.2-.5,1.9s.1,1.3.6,1.2,2.9,1.1,3,3.7.1,4.1,0,6.2a7.2,7.2,0,0,1-2,5.1c-2.5,2.4-7.3,1.7-8-4.1-.3-2.2-.4-4.3-.5-6.5s.6-3.7,2.4-4.1,1.2-1,1-1.3S88.3.1,87.2.5s-4.8-.4-7,.9c-.3.2-.7,0-1-.2a3.6,3.6,0,0,0-3,0c-1.2.4-.7,1.9-.8,2.8s.9.1,1.3.1c1.9,0,2.7.7,2.8,3.1l.2,4.2c.1,1.4.1,2.9.2,4.3s2,6.2,3.6,6.7c3.7,1.2,7.5,1.6,11-.4s3.5-3.5,4-6.7a43.8,43.8,0,0,0-.1-7.8c-.1-2.4.8-4.5,2.9-4.6a.6.6,0,0,0,.7-.5c.2-1.4-.6-2.6-1.7-2.3" fill="#fff"/><path d="M107,19.9c-.4-.1-.3-.3-.1-.7s-.2-1.8.8-2.8Zm.3-12.5c0-.1,0-.2,0-.3h0l.2.3h-.3" fill="#fff"/><path d="M130.5,4.4a.6.6,0,0,1-.4-.7.3.3,0,0,1,.6-.1c.3.6.9.4,1.5.8h-1.7M152,.5a38.3,38.3,0,0,1-5.3-.3,5.2,5.2,0,0,0-2.7,0c-1,.3-2,1-3.1.2a1.8,1.8,0,0,0-1.6-.1,5.1,5.1,0,0,1-2.4.3c-1.4-.4-2.8-1.1-4.2-.1a1,1,0,0,1-1,.1c-1.2-.8-2.5.1-3.8-.3s-1.2.4-1,1.4-.1,2.7,0,3.9v.7c-.1,1.1,0,1.7,1.2,1.4a6.2,6.2,0,0,1,3.5.1c1,.3.9-.2,1-1a5.8,5.8,0,0,1,.2-2.2c.7-1.4,1.7-1,2.6-1.1s1.4.4,1.5,1.4a11,11,0,0,1,.3,3.1,76.6,76.6,0,0,0-.3,8.3,3.2,3.2,0,0,1-1,2.5c-.5.4-1.1.2-1.6.2s-.9.8-.9,1.6,0,1.4.8,1.3,3.1-.3,4.6.3,1,.5,1.4.3,3.1-.3,4.6,0,1.4.2,1.5-1.2,0-2-1.2-1.8a1.5,1.5,0,0,1-2-1.3,12.4,12.4,0,0,1-.3-2.6q0-4.7.2-9.5c0-.9,0-2,.8-2.3s2-.9,2.9.1.4,1.9.2,2.7.2,1.7.9,1.7a18,18,0,0,1,3.5.2c.8.1,1-.4,1.1-1.3a49,49,0,0,1,.3-6.1c.1-.6-.2-.7-.6-.7" fill="#fff"/><path d="M162.2,14.3l.8-1c-.2.5-.3,1.1-.8,1m-1.2-7.8c-.2.2-.4,0-.5-.2h-.1c.4-.2-.8-1,.2-1a.5.5,0,0,0,.5.4v.8M167.3.9c-2-.9-4.1.8-6.1-.5h-.1c-1.3-.1-2.5.8-3.9.4s-1.3-.8-2.1-.1,0,1.3-.7,1.9.6.6.9.5c2.2-.2,3,1.2,2.8,4s-.2,3.6-.4,5.4.1,3.2-.1,4.7-1.4,3.1-2.7,2.8-1,0-1.1.2a5.7,5.7,0,0,0,0,1.8c.1.6.5.3.8.4s2.5-.4,3.7.2a4.5,4.5,0,0,0,3.7.2,1.9,1.9,0,0,1,1.8.1c1.1.6,2.1.9,2.6-1.1a1.7,1.7,0,0,1,.2-.5c.3-.3.3-.4.2-.8h-.2l-.3.3c-2.9-.1-3.3-.8-3.1-4.6s.4-6.6.5-9.9a2.9,2.9,0,0,1,1.8-2.8c.4-.2.9,0,1.3,0s.8.1.7-.7.6-1.5-.4-1.9" fill="#fff"/><path d="M178.8,8.7c-.1.2-.3.6-.4.6s-.4-.9-.5-1.4,1.1-.2.9.8m-3.9-3.6a1.9,1.9,0,0,1,1,1.3c-.6,0-.8-.5-1-1.3M193,3.7c-1.9-.3-3.8,0-5.6-.8s-1.1,0-1.2.8-.6,1.7.5,2a2.6,2.6,0,0,1,1.7,1.8c.8,2.3-.1,4.6-.2,6.8,0,.2-.3.8-.7.1s-1.3-2-1.9-3c-1.6-2.6-3.7-4.6-5.2-7.3-.5-.8-1-2.2-2-2.1a3.2,3.2,0,0,1-2.1-.5.8.8,0,0,0-.7,0c-1.8,1.3-3.3-.2-5-.5v.9c-.2,1.7-.2,1.7.9,2.2A3.4,3.4,0,0,1,173,7.6c-.3,3.7-.3,7.4-.9,11.1a2,2,0,0,1-1.2,1.7l-1.2.5c-.6.2-1.1.6-.9,1.4s.5,1.5,1.4,1.1a2.4,2.4,0,0,1,2.9.4c.2.1.4.3.5.3s2.2-.2,3.2.2,1-.6,1-1.4.3-1.5-.6-1.5-2.1-1-2-2.7.3-5.7.5-8.5c0-.3-.1-.7.3-.7s.5-.1.7.2c1.2,1.9,2.4,3.6,3.7,5.3s3.4,5.5,5.1,8.1c.7,1.1,1.3,2.7,2.8,1.8s.4.2.6.3,1.3.2,1.4-1.2c.4-4.5.7-9,1.2-13.4.2-2.6,1.1-3.6,2.5-4s1-.5,1.2-1.6.5-.6.5-1.1L193,3.7" fill="#fff"/><path d="M203.3,6.7V6.5h0M202,20.4h-.2a1.7,1.7,0,0,1,.3-1.5c.2.8.3,1.2-.1,1.5M219.4,5.6c-1.4.4-2.6-.6-4-.2a2.4,2.4,0,0,1-1.8-.3,12.2,12.2,0,0,0-5.8-.6c-1.2.1-2.4.6-3.6-.1a1.9,1.9,0,0,0-1.5-.3,4.2,4.2,0,0,1-3.2-.2c-1.2-.4-1.5-.1-1.7,1.4a2.3,2.3,0,0,1-.1.4c-.3.9-.2,1,.6.9s2,.6,2.2,2.5a22.4,22.4,0,0,1-.2,2.9c0,2.6-.4,5.1-.6,7.6s-1.1,3.6-3,3.4-1,.3-1.1,1.2,0,1.7.9,1.7a7.4,7.4,0,0,1,2.4-.2c2,.5,4.1.3,6,.6a25.1,25.1,0,0,0,5,.8c1-.1,2-.7,3,.1s2.5.2,3.7.4.6-.2.6-.6q.4-2.9.7-5.9c.1-.7-.4-.5-.7-.5a11.7,11.7,0,0,1-3.1-.5c-1.1-.4-1.3,0-1.4,1.2a1.9,1.9,0,0,1-1.2,1.9,7.5,7.5,0,0,1-4,.4c-2.7-.3-3.1-.9-2.7-4.3.1-.6.1-1.2.2-1.8s.4-.9.5-.8,1.3-.1,1.9.2a16.5,16.5,0,0,0,4.1.7.5.5,0,0,0,.6-.4,11.6,11.6,0,0,0,.4-3.2c-.1-1-1.1-.7-1.7-.7a29.6,29.6,0,0,1-4.4-.2c-.8,0-1-.5-.8-1.4s.1-1.1.2-1.6.7-2.1,1.7-2.3a8.7,8.7,0,0,1,3.7.1c1.9.4,2.3,1,2.2,3.4,0,.7.1,1.1.7,1.1l4.3.5c.4,0,.6,0,.7-.6a35.1,35.1,0,0,1,.9-5.8c.2-.5.1-1.3-.4-1.2" fill="#fff"/><path d="M239.4,14.2a2.7,2.7,0,0,1-1.9,2.3,6.7,6.7,0,0,1-4.1.2l-2-.3c-1.5-.2-1.9-1.2-1.4-3.2a2.8,2.8,0,0,1,2.4-2.4,7.9,7.9,0,0,1,5.7,1,2.4,2.4,0,0,1,1.3,2.4m-.6,15.3h0m7.1-1.6c-.1-.3,0-.9-.4-1a2.8,2.8,0,0,1-3.7,1.3c-.9-.3-1-1.5-1.2-2.6a17.5,17.5,0,0,1,.3-3.6c.1-1,.4-1.5,1.2-1.5s2.9-1.4,3.6-3.3-.3-5.4-1.2-6.1-2.1-2.1-3.4-2.4-4.8-1.9-7.5-1.3c-1.1.3-2.5.7-3.6.3s-4.4-.4-6.6-1.1-1.4.5-1.4,1.8.1,1.1.2,1a1.4,1.4,0,0,1,1.9.9,5.6,5.6,0,0,1,.4,2.7c-.4,3.5-.8,7-1.4,10.5-.2,1.3-.8,2.4-1.9,2.1s-1.8.3-1.7,1.9a8.6,8.6,0,0,1-.1,1.1c.3-.2.6-.5.8-.5s2.9-.5,4.2.4,2.8-.2,4.2.6,2.3.8,3.2-1.9c0-.1,0-.2-.1-.2l-1.2-.2c-1.1.1-1.6-.7-1.8-2.1a14.1,14.1,0,0,1,.5-4.5c.1-.5.5-.7,1-.7s2.4.9,3.6.8,1.3.7,1,1.5a16.8,16.8,0,0,0-.3,3.9,4.5,4.5,0,0,0,2.2,4.4,11.7,11.7,0,0,0,7.9,1c1.6-.4,2.2-1.7,1.5-3.4" fill="#fff"/><polygon points="34.2 44.3 35.8 44.3 35.8 47.1 39.1 47.1 39.1 44.3 40.7 44.3 40.7 51.8 39.1 51.8 39.1 48.5 35.8 48.5 35.8 51.8 34.2 51.8 34.2 44.3" fill="#fff"/><path d="M50.7,46.4l-.9,2.3h1.8Zm-.6-2.2h1.4l3.3,7.5H52.9l-.7-1.6H49.3l-.6,1.6H46.8Z" fill="#fff"/><polygon points="60.8 44.3 62.5 44.3 62.5 50.3 65.6 50.3 65.6 51.8 60.8 51.8 60.8 44.3" fill="#fff"/><polygon points="71.8 44.3 73.4 44.3 73.4 50.3 76.5 50.3 76.5 51.8 71.8 51.8 71.8 44.3" fill="#fff"/><path d="M94.4,46.4l-.9,2.3h1.8Zm-.6-2.2h1.4l3.3,7.5H96.5l-.7-1.6H92.9l-.6,1.6H90.5Z" fill="#fff"/><polygon points="104.4 44.3 106.7 44.3 109.9 49.5 109.9 49.5 109.9 44.3 111.6 44.3 111.6 51.8 109.4 51.8 106.1 46.4 106.1 46.4 106.1 51.8 104.4 51.8 104.4 44.3" fill="#fff"/><path d="M120.1,50.3h1.9l.9-.4a1.9,1.9,0,0,0,.6-.7,2.5,2.5,0,0,0,.2-1.1,2.1,2.1,0,0,0-.2-1,1.9,1.9,0,0,0-.6-.7l-.8-.4h-2Zm-1.7-6H121l1.7.2a4,4,0,0,1,1.4.7,3.2,3.2,0,0,1,1,1.2,4,4,0,0,1,.4,1.8,3.6,3.6,0,0,1-.3,1.6,3.5,3.5,0,0,1-.9,1.2,4.1,4.1,0,0,1-1.4.7l-1.6.2h-2.7Z" fill="#fff"/><path d="M147.2,51.3l-1.5.6L144,52a4.6,4.6,0,0,1-1.6-.3,3.7,3.7,0,0,1-1.3-.8,3.6,3.6,0,0,1-.8-1.3,4.6,4.6,0,0,1,0-3.3,3.6,3.6,0,0,1,.8-1.3,3.7,3.7,0,0,1,1.3-.8,4.7,4.7,0,0,1,1.6-.3l1.7.2a3.3,3.3,0,0,1,1.3.8l-1.2,1.3-.8-.5-1.1-.2-1,.2-.7.5a2.2,2.2,0,0,0-.5.8,2.9,2.9,0,0,0,0,1.9,2.2,2.2,0,0,0,.5.8l.7.5,1,.2h.9l.6-.3V48.9h-1.4V47.3h3Z" fill="#fff"/><path d="M157.1,46.4l-.9,2.3H158Zm-.6-2.2h1.4l3.3,7.5h-1.9l-.7-1.6h-2.9l-.6,1.6h-1.8Z" fill="#fff"/><path d="M168.8,47.4h1.9l.3-.3a.8.8,0,0,0,.1-.5.8.8,0,0,0-.1-.5l-.3-.3h-2Zm-1.7-3.1h4l.9.4a1.9,1.9,0,0,1,.6.7,2.4,2.4,0,0,1,.2,1.1,2.2,2.2,0,0,1-.4,1.4,1.9,1.9,0,0,1-1.2.7l1.9,3.2h-2l-1.6-3h-.8v3h-1.7Z" fill="#fff"/><path d="M181.1,50.3H183l.9-.4a1.9,1.9,0,0,0,.6-.7,2.5,2.5,0,0,0,.2-1.1,2.1,2.1,0,0,0-.2-1,1.9,1.9,0,0,0-.6-.7l-.8-.4h-2Zm-1.7-6h2.5l1.7.2a4,4,0,0,1,1.4.7,3.2,3.2,0,0,1,1,1.2,4,4,0,0,1,.4,1.8,3.6,3.6,0,0,1-.3,1.6,3.5,3.5,0,0,1-.9,1.2,4.1,4.1,0,0,1-1.4.7l-1.6.2h-2.7Z" fill="#fff"/><polygon points="192.9 44.3 198 44.3 198 45.8 194.6 45.8 194.6 47.2 197.8 47.2 197.8 48.7 194.6 48.7 194.6 50.3 198.2 50.3 198.2 51.8 192.9 51.8 192.9 44.3" fill="#fff"/><polygon points="204.9 44.3 207.1 44.3 210.3 49.5 210.4 49.5 210.4 44.3 212 44.3 212 51.8 209.8 51.8 206.6 46.4 206.5 46.4 206.5 51.8 204.9 51.8 204.9 44.3" fill="#fff"/><path d="M125.2,13.8a10.9,10.9,0,0,1-.1,1.2H124c-.2-.7-1.1.1-1-1s.4-.4.4-.7-.2-.3-.4-.3V11.6c.2-.2.3-.3.5-.2h0a4.2,4.2,0,0,0,.5,1c-.3.1-.4.5-.2.9s.5,1,.9,1-.4-.9.3-.9h.2c-.3-1.6-1.9-3.6-3-3.9a17.5,17.5,0,0,0-6.8-.9c-1.4-.1-2.8,0-4.1-.2a1.9,1.9,0,0,1-1.9-2.1,2.7,2.7,0,0,1,.8-1.9s2-1.8,6.9-.9a2.1,2.1,0,0,1,1.9,2.8c-.1.4,0,.6.4.6l4.7.3c.3,0,.6,0,.5-.5s.3-4,.3-6c0-.4,0-1-.5-.8s-2-.3-3,0a7.9,7.9,0,0,1-3.3,0h-6.6c-2.4.1-5.2,2-5.2,2H106a7.4,7.4,0,0,0-2.8,5.3c-.3,2.1,1.3,4.1,3.3,5s5.1.7,7.7.9,3.1,0,4.4,1.7a1.8,1.8,0,0,1,.3,2.1,3.4,3.4,0,0,1-1.8,1.6c-1.8.7-3.6.5-5.4.3s-2.2-1.1-2.3-3-.3-1.3-.9-1.4h-4.3c-.3,0-.6.1-.6.6,0,2.2,0,4.4.1,6.6,0,.4.2.7.4.5s2,.3,3,.3,1.6-.8,2.4-.7a16.1,16.1,0,0,0,8.3-.1,13.6,13.6,0,0,0,5.7-3c1.4-1.3,1.7-3.1,1.7-5.1Z" fill="#fff"/></g></g></svg>